<svg width="68" height="68" viewBox="0 0 68 68" fill="none" xmlns="http://www.w3.org/2000/svg">
<path fill-rule="evenodd" clip-rule="evenodd" d="M34 68C52.7777 68 68 52.7777 68 34C68 15.2223 52.7777 0 34 0C15.2223 0 0 15.2223 0 34C0 52.7777 15.2223 68 34 68Z" fill="#9437F0" fill-opacity="0.097195"/>
<path d="M41.1713 32.0957C40.7881 31.7044 40.3217 31.4044 39.8067 31.218C39.2918 31.0317 38.7414 30.9637 38.1965 31.0192C37.6517 31.0747 37.1263 31.2522 36.6595 31.5385C36.1926 31.8248 35.7963 32.2127 35.4998 32.6732C35.2035 32.2125 34.8071 31.8246 34.3403 31.5382C33.8734 31.2518 33.348 31.0742 32.8031 31.0188C32.2582 30.9633 31.7078 31.0313 31.1928 31.2177C30.6778 31.4042 30.2114 31.7042 29.8283 32.0957C29.137 32.8027 28.75 33.7521 28.75 34.7409C28.75 35.7297 29.137 36.6792 29.8283 37.3862L35.4998 43.1499L41.1728 37.3869C41.8636 36.6794 42.2501 35.7298 42.2498 34.741C42.2496 33.7522 41.8625 32.8028 41.1713 32.0957Z" fill="#AE8CFF" stroke="#20225B" stroke-width="2" stroke-miterlimit="10" stroke-linecap="round" stroke-linejoin="round"/>
<path d="M49 49H22C21.2044 49 20.4413 48.6839 19.8787 48.1213C19.3161 47.5587 19 46.7956 19 46V19H31L34.75 25H52V46C52 46.7956 51.6839 47.5587 51.1213 48.1213C50.5587 48.6839 49.7956 49 49 49Z" stroke="#20225B" stroke-width="2" stroke-miterlimit="10" stroke-linecap="round" stroke-linejoin="round"/>
</svg>
