<svg width="91" height="27" viewBox="0 0 91 27" fill="none" xmlns="http://www.w3.org/2000/svg">
<path d="M6.87785 11.1438C6.87785 9.30351 8.38409 7.81154 10.2424 7.81154C12.1006 7.81154 13.607 9.30351 13.607 11.1438C13.607 12.9842 12.1006 14.4762 10.2424 14.4762C8.38409 14.4762 6.87785 12.9842 6.87785 11.1438ZM10.2424 1C4.58578 1 0 5.5417 0 11.1438C0 16.7463 4.58578 21.288 10.2424 21.288V27C10.2424 27 20.4848 23.3886 20.4848 11.1438C20.4848 5.5417 15.8991 1 10.2424 1Z" fill="#FF4921"/>
<path d="M30.971 6.111H28.539V20H30.971V6.111ZM36.0257 20V14.946C36.0257 13.426 36.8997 12.438 38.3247 12.438C39.5217 12.438 40.3007 13.198 40.3007 14.775V20H42.6187V14.224C42.6187 11.792 41.4027 10.329 39.0467 10.329C37.7737 10.329 36.6337 10.88 36.0447 11.83L35.8547 10.614H33.7077V20H36.0257ZM47.3707 20H49.6507L53.5647 10.614H51.1707L49.4607 14.927C49.0617 15.953 48.7197 16.941 48.5867 17.53C48.4727 17.017 48.1497 16.048 47.7507 14.927L46.1167 10.614H43.6467L47.3707 20ZM58.6323 20.247C61.0833 20.247 62.7933 19.012 63.1923 16.96H61.0453C60.7793 17.853 59.9433 18.347 58.6703 18.347C57.1313 18.347 56.2573 17.511 56.0863 15.858L63.1543 15.839V15.136C63.1543 12.21 61.3683 10.329 58.5563 10.329C55.8013 10.329 53.8823 12.362 53.8823 15.307C53.8823 18.214 55.8393 20.247 58.6323 20.247ZM58.5753 12.229C59.9623 12.229 60.8553 13.084 60.8553 14.376H56.1433C56.3713 12.97 57.2073 12.229 58.5753 12.229ZM64.2875 17.15C64.2875 18.993 65.7695 20.247 68.1065 20.247C70.4245 20.247 72.0395 19.069 72.0395 17.169C72.0395 15.725 71.2415 15.003 69.6645 14.642L67.9735 14.243C67.1755 14.053 66.7575 13.711 66.7575 13.179C66.7575 12.476 67.2895 12.058 68.2015 12.058C69.0945 12.058 69.6265 12.571 69.6455 13.369H71.8495C71.8305 11.545 70.4055 10.329 68.2965 10.329C66.1305 10.329 64.5725 11.431 64.5725 13.274C64.5725 14.775 65.3895 15.573 67.0805 15.953L68.7715 16.352C69.6075 16.542 69.8545 16.884 69.8545 17.359C69.8545 18.043 69.2655 18.48 68.1825 18.48C67.1185 18.48 66.5105 17.967 66.4915 17.15H64.2875ZM76.9964 20V12.552H78.8204V10.614H76.9964V7.688H74.6784V10.614H72.8734V12.552H74.6784V20H76.9964ZM79.6177 15.288C79.6177 18.214 81.7267 20.228 84.6337 20.228C87.5407 20.228 89.6497 18.214 89.6497 15.288C89.6497 12.362 87.5407 10.348 84.6337 10.348C81.7267 10.348 79.6177 12.362 79.6177 15.288ZM81.9357 15.288C81.9357 13.578 83.0377 12.419 84.6337 12.419C86.2297 12.419 87.3317 13.578 87.3317 15.288C87.3317 16.998 86.2297 18.157 84.6337 18.157C83.0377 18.157 81.9357 16.998 81.9357 15.288Z" fill="#20225B"/>
</svg>
