<svg width="143" height="32" viewBox="0 0 143 32" fill="none" xmlns="http://www.w3.org/2000/svg">
<path d="M37.8 26.938V8.31299H41.2V26.938H37.8ZM44.5074 26.938V13.338H47.5824V16.013L47.3324 15.538C47.6491 14.7213 48.1658 14.1047 48.8824 13.688C49.6158 13.2547 50.4658 13.038 51.4324 13.038C52.4324 13.038 53.3158 13.2547 54.0824 13.688C54.8658 14.1213 55.4741 14.7297 55.9074 15.513C56.3408 16.2797 56.5574 17.1713 56.5574 18.188V26.938H53.2824V18.963C53.2824 18.363 53.1658 17.8463 52.9324 17.413C52.6991 16.9797 52.3741 16.6463 51.9574 16.413C51.5574 16.163 51.0824 16.038 50.5324 16.038C49.9991 16.038 49.5241 16.163 49.1074 16.413C48.6908 16.6463 48.3658 16.9797 48.1324 17.413C47.8991 17.8463 47.7824 18.363 47.7824 18.963V26.938H44.5074ZM59.3268 26.938V13.338H62.4018V16.013L62.1518 15.538C62.4684 14.7213 62.9851 14.1047 63.7018 13.688C64.4351 13.2547 65.2851 13.038 66.2518 13.038C67.2518 13.038 68.1351 13.2547 68.9018 13.688C69.6851 14.1213 70.2934 14.7297 70.7268 15.513C71.1601 16.2797 71.3768 17.1713 71.3768 18.188V26.938H68.1018V18.963C68.1018 18.363 67.9851 17.8463 67.7518 17.413C67.5184 16.9797 67.1934 16.6463 66.7768 16.413C66.3768 16.163 65.9018 16.038 65.3518 16.038C64.8184 16.038 64.3434 16.163 63.9268 16.413C63.5101 16.6463 63.1851 16.9797 62.9518 17.413C62.7184 17.8463 62.6018 18.363 62.6018 18.963V26.938H59.3268ZM80.7961 27.238C79.4628 27.238 78.2461 26.9297 77.1461 26.313C76.0628 25.6963 75.1961 24.8547 74.5461 23.788C73.9128 22.7213 73.5961 21.5047 73.5961 20.138C73.5961 18.7713 73.9128 17.5547 74.5461 16.488C75.1961 15.4213 76.0628 14.5797 77.1461 13.963C78.2294 13.3463 79.4461 13.038 80.7961 13.038C82.1294 13.038 83.3378 13.3463 84.4211 13.963C85.5044 14.5797 86.3628 15.4213 86.9961 16.488C87.6461 17.538 87.9711 18.7547 87.9711 20.138C87.9711 21.5047 87.6461 22.7213 86.9961 23.788C86.3461 24.8547 85.4794 25.6963 84.3961 26.313C83.3128 26.9297 82.1128 27.238 80.7961 27.238ZM80.7961 24.238C81.5294 24.238 82.1711 24.063 82.7211 23.713C83.2878 23.363 83.7294 22.8797 84.0461 22.263C84.3794 21.6297 84.5461 20.9213 84.5461 20.138C84.5461 19.338 84.3794 18.638 84.0461 18.038C83.7294 17.4213 83.2878 16.938 82.7211 16.588C82.1711 16.2213 81.5294 16.038 80.7961 16.038C80.0461 16.038 79.3878 16.2213 78.8211 16.588C78.2544 16.938 77.8044 17.4213 77.4711 18.038C77.1544 18.638 76.9961 19.338 76.9961 20.138C76.9961 20.9213 77.1544 21.6297 77.4711 22.263C77.8044 22.8797 78.2544 23.363 78.8211 23.713C79.3878 24.063 80.0461 24.238 80.7961 24.238ZM94.3105 26.938L88.9605 13.338H92.5355L96.4105 24.038H95.0855L98.9855 13.338H102.561L97.2105 26.938H94.3105ZM108.007 27.238C107.057 27.238 106.232 27.0797 105.532 26.763C104.832 26.4463 104.291 25.9963 103.907 25.413C103.524 24.813 103.332 24.1213 103.332 23.338C103.332 22.588 103.499 21.9213 103.832 21.338C104.166 20.738 104.682 20.238 105.382 19.838C106.082 19.438 106.966 19.1547 108.032 18.988L112.482 18.263V20.763L108.657 21.413C108.007 21.5297 107.524 21.738 107.207 22.038C106.891 22.338 106.732 22.7297 106.732 23.213C106.732 23.6797 106.907 24.0547 107.257 24.338C107.624 24.6047 108.074 24.738 108.607 24.738C109.291 24.738 109.891 24.5963 110.407 24.313C110.941 24.013 111.349 23.6047 111.632 23.088C111.932 22.5713 112.082 22.0047 112.082 21.388V17.888C112.082 17.3047 111.849 16.8213 111.382 16.438C110.932 16.038 110.332 15.838 109.582 15.838C108.882 15.838 108.257 16.0297 107.707 16.413C107.174 16.7797 106.782 17.2713 106.532 17.888L103.857 16.588C104.124 15.8713 104.541 15.2547 105.107 14.738C105.691 14.2047 106.374 13.788 107.157 13.488C107.941 13.188 108.791 13.038 109.707 13.038C110.824 13.038 111.807 13.2463 112.657 13.663C113.507 14.063 114.166 14.6297 114.632 15.363C115.116 16.0797 115.357 16.9213 115.357 17.888V26.938H112.257V24.613L112.957 24.563C112.607 25.1463 112.191 25.638 111.707 26.038C111.224 26.4213 110.674 26.7213 110.057 26.938C109.441 27.138 108.757 27.238 108.007 27.238ZM124.34 27.088C122.807 27.088 121.615 26.6713 120.765 25.838C119.932 24.988 119.515 23.7963 119.515 22.263V16.263H117.165V13.338H117.415C118.082 13.338 118.599 13.163 118.965 12.813C119.332 12.463 119.515 11.9547 119.515 11.288V10.238H122.79V13.338H125.915V16.263H122.79V22.088C122.79 22.538 122.865 22.9213 123.015 23.238C123.182 23.5547 123.432 23.7963 123.765 23.963C124.115 24.1297 124.557 24.213 125.09 24.213C125.207 24.213 125.34 24.2047 125.49 24.188C125.657 24.1713 125.815 24.1547 125.965 24.138V26.938C125.732 26.9713 125.465 27.0047 125.165 27.038C124.865 27.0713 124.59 27.088 124.34 27.088ZM134.795 27.238C133.395 27.238 132.17 26.9213 131.12 26.288C130.07 25.6547 129.254 24.7963 128.67 23.713C128.087 22.6297 127.795 21.4297 127.795 20.113C127.795 18.7463 128.087 17.538 128.67 16.488C129.27 15.4213 130.079 14.5797 131.095 13.963C132.129 13.3463 133.279 13.038 134.545 13.038C135.612 13.038 136.545 13.213 137.345 13.563C138.162 13.913 138.854 14.3963 139.42 15.013C139.987 15.6297 140.42 16.338 140.72 17.138C141.02 17.9213 141.17 18.7713 141.17 19.688C141.17 19.9213 141.154 20.163 141.12 20.413C141.104 20.663 141.062 20.8797 140.995 21.063H130.495V18.563H139.145L137.595 19.738C137.745 18.9713 137.704 18.288 137.47 17.688C137.254 17.088 136.887 16.613 136.37 16.263C135.87 15.913 135.262 15.738 134.545 15.738C133.862 15.738 133.254 15.913 132.72 16.263C132.187 16.5963 131.779 17.0963 131.495 17.763C131.229 18.413 131.129 19.2047 131.195 20.138C131.129 20.9713 131.237 21.713 131.52 22.363C131.82 22.9963 132.254 23.488 132.82 23.838C133.404 24.188 134.07 24.363 134.82 24.363C135.57 24.363 136.204 24.2047 136.72 23.888C137.254 23.5713 137.67 23.1463 137.97 22.613L140.62 23.913C140.354 24.563 139.937 25.138 139.37 25.638C138.804 26.138 138.129 26.5297 137.345 26.813C136.579 27.0963 135.729 27.238 134.795 27.238Z" fill="#20225B"/>
<path d="M14.8145 29.938V23.7988C14.8145 19.5187 19.7889 16.0491 25.9256 16.0491V22.1884C25.9256 26.4684 20.9509 29.938 14.8145 29.938" fill="#4D53FD"/>
<path d="M12.2079 29.7163V17.1461C12.2079 10.4036 6.74223 4.93793 0 4.93793V17.5081C0 24.2506 5.46569 29.7163 12.2079 29.7163" fill="#4D53FD"/>
<path d="M22.3582 9.23694C22.3582 11.5261 20.5024 13.3818 18.213 13.3818C15.9239 13.3818 14.0684 11.5261 14.0684 9.23694C14.0684 6.94781 15.9239 5.09204 18.213 5.09204C20.5024 5.09204 22.3582 6.94781 22.3582 9.23694Z" fill="#4D53FD"/>
</svg>
