<svg width="154" height="38" viewBox="0 0 154 38" fill="none" xmlns="http://www.w3.org/2000/svg">
<path d="M40.872 27V7.63H44.408V27H40.872ZM47.8477 27V12.856H51.0457V15.638L50.7857 15.144C51.1151 14.2947 51.6524 13.6533 52.3977 13.22C53.1604 12.7693 54.0444 12.544 55.0497 12.544C56.0897 12.544 57.0084 12.7693 57.8057 13.22C58.6204 13.6707 59.2531 14.3033 59.7037 15.118C60.1544 15.9153 60.3797 16.8427 60.3797 17.9V27H56.9737V18.706C56.9737 18.082 56.8524 17.5447 56.6097 17.094C56.3671 16.6433 56.0291 16.2967 55.5957 16.054C55.1797 15.794 54.6857 15.664 54.1137 15.664C53.5591 15.664 53.0651 15.794 52.6317 16.054C52.1984 16.2967 51.8604 16.6433 51.6177 17.094C51.3751 17.5447 51.2537 18.082 51.2537 18.706V27H47.8477ZM63.2598 27V12.856H66.4578V15.638L66.1978 15.144C66.5272 14.2947 67.0645 13.6533 67.8098 13.22C68.5725 12.7693 69.4565 12.544 70.4618 12.544C71.5018 12.544 72.4205 12.7693 73.2178 13.22C74.0325 13.6707 74.6652 14.3033 75.1158 15.118C75.5665 15.9153 75.7918 16.8427 75.7918 17.9V27H72.3858V18.706C72.3858 18.082 72.2645 17.5447 72.0218 17.094C71.7792 16.6433 71.4412 16.2967 71.0078 16.054C70.5918 15.794 70.0978 15.664 69.5258 15.664C68.9712 15.664 68.4772 15.794 68.0438 16.054C67.6105 16.2967 67.2725 16.6433 67.0298 17.094C66.7872 17.5447 66.6658 18.082 66.6658 18.706V27H63.2598ZM85.5879 27.312C84.2013 27.312 82.9359 26.9913 81.7919 26.35C80.6653 25.7087 79.7639 24.8333 79.0879 23.724C78.4293 22.6147 78.0999 21.3493 78.0999 19.928C78.0999 18.5067 78.4293 17.2413 79.0879 16.132C79.7639 15.0227 80.6653 14.1473 81.7919 13.506C82.9186 12.8647 84.1839 12.544 85.5879 12.544C86.9746 12.544 88.2313 12.8647 89.3579 13.506C90.4846 14.1473 91.3773 15.0227 92.0359 16.132C92.7119 17.224 93.0499 18.4893 93.0499 19.928C93.0499 21.3493 92.7119 22.6147 92.0359 23.724C91.3599 24.8333 90.4586 25.7087 89.3319 26.35C88.2053 26.9913 86.9573 27.312 85.5879 27.312ZM85.5879 24.192C86.3506 24.192 87.0179 24.01 87.5899 23.646C88.1793 23.282 88.6386 22.7793 88.9679 22.138C89.3146 21.4793 89.4879 20.7427 89.4879 19.928C89.4879 19.096 89.3146 18.368 88.9679 17.744C88.6386 17.1027 88.1793 16.6 87.5899 16.236C87.0179 15.8547 86.3506 15.664 85.5879 15.664C84.8079 15.664 84.1233 15.8547 83.5339 16.236C82.9446 16.6 82.4766 17.1027 82.1299 17.744C81.8006 18.368 81.6359 19.096 81.6359 19.928C81.6359 20.7427 81.8006 21.4793 82.1299 22.138C82.4766 22.7793 82.9446 23.282 83.5339 23.646C84.1233 24.01 84.8079 24.192 85.5879 24.192ZM99.643 27L94.079 12.856H97.797L101.827 23.984H100.449L104.505 12.856H108.223L102.659 27H99.643ZM113.888 27.312C112.9 27.312 112.042 27.1473 111.314 26.818C110.586 26.4887 110.022 26.0207 109.624 25.414C109.225 24.79 109.026 24.0707 109.026 23.256C109.026 22.476 109.199 21.7827 109.546 21.176C109.892 20.552 110.43 20.032 111.158 19.616C111.886 19.2 112.804 18.9053 113.914 18.732L118.542 17.978V20.578L114.564 21.254C113.888 21.3753 113.385 21.592 113.056 21.904C112.726 22.216 112.562 22.6233 112.562 23.126C112.562 23.6113 112.744 24.0013 113.108 24.296C113.489 24.5733 113.957 24.712 114.512 24.712C115.222 24.712 115.846 24.5647 116.384 24.27C116.938 23.958 117.363 23.5333 117.658 22.996C117.97 22.4587 118.126 21.8693 118.126 21.228V17.588C118.126 16.9813 117.883 16.4787 117.398 16.08C116.93 15.664 116.306 15.456 115.526 15.456C114.798 15.456 114.148 15.6553 113.576 16.054C113.021 16.4353 112.614 16.9467 112.354 17.588L109.572 16.236C109.849 15.4907 110.282 14.8493 110.872 14.312C111.478 13.7573 112.189 13.324 113.004 13.012C113.818 12.7 114.702 12.544 115.656 12.544C116.817 12.544 117.84 12.7607 118.724 13.194C119.608 13.61 120.292 14.1993 120.778 14.962C121.28 15.7073 121.532 16.5827 121.532 17.588V27H118.308V24.582L119.036 24.53C118.672 25.1367 118.238 25.648 117.736 26.064C117.233 26.4627 116.661 26.7747 116.02 27C115.378 27.208 114.668 27.312 113.888 27.312ZM130.874 27.156C129.279 27.156 128.04 26.7227 127.156 25.856C126.289 24.972 125.856 23.7327 125.856 22.138V15.898H123.412V12.856H123.672C124.365 12.856 124.903 12.674 125.284 12.31C125.665 11.946 125.856 11.4173 125.856 10.724V9.632H129.262V12.856H132.512V15.898H129.262V21.956C129.262 22.424 129.34 22.8227 129.496 23.152C129.669 23.4813 129.929 23.7327 130.276 23.906C130.64 24.0793 131.099 24.166 131.654 24.166C131.775 24.166 131.914 24.1573 132.07 24.14C132.243 24.1227 132.408 24.1053 132.564 24.088V27C132.321 27.0347 132.044 27.0693 131.732 27.104C131.42 27.1387 131.134 27.156 130.874 27.156ZM141.747 27.312C140.291 27.312 139.017 26.9827 137.925 26.324C136.833 25.6653 135.984 24.7727 135.377 23.646C134.77 22.5193 134.467 21.2713 134.467 19.902C134.467 18.4807 134.77 17.224 135.377 16.132C136.001 15.0227 136.842 14.1473 137.899 13.506C138.974 12.8647 140.17 12.544 141.487 12.544C142.596 12.544 143.567 12.726 144.399 13.09C145.248 13.454 145.968 13.9567 146.557 14.598C147.146 15.2393 147.597 15.976 147.909 16.808C148.221 17.6227 148.377 18.5067 148.377 19.46C148.377 19.7027 148.36 19.954 148.325 20.214C148.308 20.474 148.264 20.6993 148.195 20.89H137.275V18.29H146.271L144.659 19.512C144.815 18.7147 144.772 18.004 144.529 17.38C144.304 16.756 143.922 16.262 143.385 15.898C142.865 15.534 142.232 15.352 141.487 15.352C140.776 15.352 140.144 15.534 139.589 15.898C139.034 16.2447 138.61 16.7647 138.315 17.458C138.038 18.134 137.934 18.9573 138.003 19.928C137.934 20.7947 138.046 21.566 138.341 22.242C138.653 22.9007 139.104 23.412 139.693 23.776C140.3 24.14 140.993 24.322 141.773 24.322C142.553 24.322 143.212 24.1573 143.749 23.828C144.304 23.4987 144.737 23.0567 145.049 22.502L147.805 23.854C147.528 24.53 147.094 25.128 146.505 25.648C145.916 26.168 145.214 26.5753 144.399 26.87C143.602 27.1647 142.718 27.312 141.747 27.312Z" fill="white"/>
<path d="M15.4043 29.6626V23.2778C15.4043 18.8264 20.5778 15.2179 26.9601 15.2179V21.6029C26.9601 26.0541 21.7863 29.6626 15.4043 29.6626Z" fill="white"/>
<path d="M12.6964 29.4324V16.3591C12.6964 9.34683 7.01204 3.66242 0 3.66242V16.7357C0 23.748 5.68441 29.4324 12.6964 29.4324Z" fill="white"/>
<path d="M23.2563 8.13308C23.2563 10.5138 21.3263 12.4438 18.9453 12.4438C16.5645 12.4438 14.6348 10.5138 14.6348 8.13308C14.6348 5.75235 16.5645 3.82231 18.9453 3.82231C21.3263 3.82231 23.2563 5.75235 23.2563 8.13308Z" fill="white"/>
</svg>
