<svg width="148" height="40" viewBox="0 0 148 40" fill="none" xmlns="http://www.w3.org/2000/svg">
<path d="M27.9655 5.54292L24.8753 4.7204L22.2712 14.3747L19.9201 5.65873L16.8298 6.48126L19.37 15.8982L13.0429 9.61326L10.7807 11.8604L17.7207 18.7543L9.07803 16.4539L8.25 19.5236L17.6932 22.0371C17.5851 21.5738 17.5279 21.0912 17.5279 20.5953C17.5279 17.0849 20.3926 14.2393 23.9264 14.2393C27.4603 14.2393 30.325 17.0849 30.325 20.5953C30.325 21.088 30.2685 21.5677 30.1617 22.0282L38.7438 24.3124L39.5718 21.2428L30.0911 18.7193L38.7343 16.4187L37.9062 13.3491L28.4259 15.8724L34.7529 9.58746L32.4907 7.34028L25.647 14.1385L27.9655 5.54292Z" fill="#A99A11"/>
<path d="M30.1523 22.0639C29.8874 23.1766 29.328 24.1761 28.5605 24.977L34.7779 31.1531L37.0401 28.9059L30.1523 22.0639Z" fill="#A99A11"/>
<path d="M28.4978 25.0415C27.7211 25.8296 26.7395 26.4177 25.6387 26.7207L27.9011 35.1078L30.9913 34.2853L28.4978 25.0415Z" fill="#A99A11"/>
<path d="M25.5238 26.7515C25.0131 26.882 24.4778 26.9513 23.9262 26.9513C23.3351 26.9513 22.7628 26.8717 22.2195 26.7227L19.9551 35.1174L23.0453 35.9399L25.5238 26.7515Z" fill="#A99A11"/>
<path d="M22.11 26.6916C21.0261 26.3735 20.0619 25.7779 19.301 24.9876L13.0684 31.1788L15.3306 33.426L22.11 26.6916Z" fill="#A99A11"/>
<path d="M19.2479 24.9329C18.5001 24.1376 17.9554 23.1514 17.6961 22.0559L9.08594 24.3477L9.91396 27.4173L19.2479 24.9329Z" fill="#A99A11"/>
<path d="M51.584 10.61H58.492C60.1053 10.61 61.374 11.0207 62.298 11.842C63.222 12.6633 63.684 13.7927 63.684 15.23C63.684 16.4033 63.244 17.386 62.364 18.178C63.684 19.0287 64.344 20.2973 64.344 21.984C64.344 23.5533 63.8233 24.7853 62.782 25.68C61.7553 26.56 60.3253 27 58.492 27H51.584V10.61ZM58.8 24.36C59.5627 24.36 60.1787 24.1473 60.648 23.722C61.1173 23.282 61.352 22.7027 61.352 21.984C61.352 21.2653 61.1173 20.686 60.648 20.246C60.1933 19.806 59.5773 19.586 58.8 19.586H54.576V24.36H58.8ZM58.646 16.968C59.262 16.968 59.7533 16.792 60.12 16.44C60.4867 16.0733 60.67 15.604 60.67 15.032C60.67 14.46 60.4867 14.0053 60.12 13.668C59.7533 13.3307 59.262 13.162 58.646 13.162H54.576V16.968H58.646ZM66.5529 15.032H69.2589V16.704C69.5523 16.0587 69.9703 15.5967 70.5129 15.318C71.0556 15.0393 71.7156 14.9 72.4929 14.9H73.1969V17.452H72.1629C71.3416 17.452 70.6816 17.7087 70.1829 18.222C69.6843 18.7353 69.4349 19.4393 69.4349 20.334V27H66.5529V15.032ZM74.7815 15.032H77.6635V27H74.7815V15.032ZM74.5615 11.732C74.5615 11.204 74.7081 10.7933 75.0015 10.5C75.2948 10.2067 75.6981 10.06 76.2115 10.06C76.7395 10.06 77.1501 10.2067 77.4435 10.5C77.7368 10.7933 77.8835 11.204 77.8835 11.732C77.8835 12.2453 77.7368 12.6487 77.4435 12.942C77.1648 13.2353 76.7541 13.382 76.2115 13.382C75.6981 13.382 75.2948 13.2353 75.0015 12.942C74.7081 12.6487 74.5615 12.2453 74.5615 11.732ZM86.1324 31.84C84.7831 31.84 83.5951 31.5173 82.5684 30.872C81.5564 30.2413 80.8598 29.398 80.4784 28.342L83.1624 27.33C83.3384 27.902 83.6904 28.3567 84.2184 28.694C84.7464 29.0313 85.3844 29.2 86.1324 29.2C87.0124 29.2 87.7238 28.9507 88.2664 28.452C88.8238 27.9533 89.1024 27.2713 89.1024 26.406V25.108C88.2518 26.0467 87.1004 26.516 85.6484 26.516C84.5484 26.516 83.5511 26.2593 82.6564 25.746C81.7764 25.2327 81.0871 24.5287 80.5884 23.634C80.0898 22.7393 79.8404 21.7347 79.8404 20.62C79.8404 19.5053 80.0824 18.508 80.5664 17.628C81.0651 16.7333 81.7544 16.0367 82.6344 15.538C83.5144 15.0247 84.4971 14.768 85.5824 14.768C87.1224 14.768 88.3471 15.3107 89.2564 16.396V15.032H91.9844V26.406C91.9844 27.4473 91.7351 28.3787 91.2364 29.2C90.7378 30.036 90.0411 30.6813 89.1464 31.136C88.2664 31.6053 87.2618 31.84 86.1324 31.84ZM82.8324 20.642C82.8324 21.566 83.1258 22.336 83.7124 22.952C84.3138 23.5533 85.0764 23.854 86.0004 23.854C86.9098 23.854 87.6504 23.5533 88.2224 22.952C88.8091 22.3507 89.1024 21.5807 89.1024 20.642C89.1024 19.7033 88.8091 18.9333 88.2224 18.332C87.6358 17.716 86.8951 17.408 86.0004 17.408C85.0911 17.408 84.3358 17.716 83.7344 18.332C83.1331 18.948 82.8324 19.718 82.8324 20.642ZM94.676 10.346H97.558V16.22C97.8953 15.7507 98.3427 15.3913 98.9 15.142C99.4573 14.8927 100.081 14.768 100.77 14.768C101.635 14.768 102.413 14.9587 103.102 15.34C103.791 15.7213 104.327 16.2567 104.708 16.946C105.089 17.6353 105.28 18.42 105.28 19.3V27H102.398V19.982C102.398 19.2047 102.171 18.5813 101.716 18.112C101.276 17.6427 100.697 17.408 99.978 17.408C99.274 17.408 98.6947 17.6427 98.24 18.112C97.7853 18.5813 97.558 19.2047 97.558 19.982V27H94.676V10.346ZM113.173 27.132C111.824 27.132 110.775 26.7653 110.027 26.032C109.294 25.284 108.927 24.2353 108.927 22.886V17.606H106.859V15.032H107.079C107.666 15.032 108.12 14.878 108.443 14.57C108.766 14.262 108.927 13.8147 108.927 13.228V12.304H111.809V15.032H114.559V17.606H111.809V22.732C111.809 23.9787 112.484 24.602 113.833 24.602C114.068 24.602 114.324 24.58 114.603 24.536V27.022C114.134 27.0953 113.657 27.132 113.173 27.132Z" fill="#181322"/>
</svg>
