<svg width="40" height="40" viewBox="0 0 40 40" fill="none" xmlns="http://www.w3.org/2000/svg">
<path d="M1.66016 24.4081C1.66016 22.5247 2.03261 20.6597 2.7563 18.9198C3.48 17.1797 4.5407 15.5987 5.8779 14.267C7.2151 12.9352 8.80252 11.8788 10.5496 11.1581C12.2968 10.4374 14.1693 10.0664 16.0604 10.0664V24.4081H1.66016Z" fill="#154EE0"/>
<path d="M1.66016 24.4082C1.66016 26.2916 2.03261 28.1565 2.7563 29.8966C3.48 31.6366 4.5407 33.2176 5.8779 34.5494C7.2151 35.8811 8.80252 36.9375 10.5496 37.6583C12.2968 38.379 14.1693 38.75 16.0604 38.75V24.4082H1.66016Z" fill="#EFF0FF"/>
<path d="M30.4606 24.4082C30.4606 26.2916 30.0884 28.1565 29.3648 29.8966C28.6411 31.6366 27.5805 33.2176 26.243 34.5494C24.9058 35.8811 23.3184 36.9375 21.5712 37.6583C19.8242 38.379 17.9516 38.75 16.0605 38.75V24.4082H30.4606Z" fill="#EFF0FF"/>
<path d="M39.3394 12.0183C39.3394 17.9655 34.4984 22.7867 28.527 22.7867H17.7148V12.0183C17.7148 6.07117 22.5557 1.25 28.527 1.25C34.4984 1.25 39.3394 6.07117 39.3394 12.0183Z" fill="#154EE0"/>
</svg>
