<svg width="40" height="40" viewBox="0 0 40 40" fill="none" xmlns="http://www.w3.org/2000/svg">
<g clip-path="url(#clip0_2204_2159)">
<path fill-rule="evenodd" clip-rule="evenodd" d="M20.1802 39.1591C30.9565 39.1591 39.6924 30.4232 39.6924 19.6469C39.6924 8.87068 30.9565 0.134766 20.1802 0.134766C9.40386 0.134766 0.667969 8.87068 0.667969 19.6469C0.667969 30.4232 9.40386 39.1591 20.1802 39.1591ZM26.2673 9.22437C26.5636 8.17189 25.5422 7.54953 24.6095 8.21408L11.5881 17.4904C10.5765 18.2111 10.7356 19.6469 11.8271 19.6469H15.256V19.6204H21.9387L16.4935 21.5417L14.0931 30.0696C13.7968 31.1221 14.818 31.7444 15.7509 31.0798L28.7723 21.8035C29.7839 21.0828 29.6247 19.6469 28.5333 19.6469H23.3335L26.2673 9.22437Z" fill="#CD3B86"/>
</g>
<defs>
<clipPath id="clip0_2204_2159">
<rect width="40" height="40" fill="white"/>
</clipPath>
</defs>
</svg>
