<svg width="40" height="40" viewBox="0 0 40 40" fill="none" xmlns="http://www.w3.org/2000/svg">
<g clip-path="url(#clip0_2204_2171)">
<path fill-rule="evenodd" clip-rule="evenodd" d="M19.6118 39.3397C30.3882 39.3397 39.124 30.6038 39.124 19.8275C39.124 9.05127 30.3882 0.315369 19.6118 0.315369C8.8355 0.315369 0.0996094 9.05127 0.0996094 19.8275C0.0996094 30.6038 8.8355 39.3397 19.6118 39.3397ZM22.6235 15.391C24.2867 13.7277 24.2867 11.031 22.6235 9.36772C20.9602 7.70442 18.2635 7.70442 16.6002 9.36772C14.9369 11.031 14.9369 13.7277 16.6002 15.391L19.6118 18.4026L22.6235 15.391ZM24.0483 22.8392C25.7117 24.5025 28.4083 24.5025 30.0717 22.8392C31.7349 21.1759 31.7349 18.4792 30.0717 16.8159C28.4083 15.1527 25.7117 15.1527 24.0483 16.8159L21.0367 19.8276L24.0483 22.8392ZM22.6235 30.2874C24.2867 28.6241 24.2867 25.9274 22.6235 24.2641L19.6118 21.2525L16.6002 24.2641C14.9369 25.9274 14.9369 28.6241 16.6002 30.2874C18.2635 31.9507 20.9602 31.9507 22.6235 30.2874ZM9.15193 22.8392C7.48867 21.1759 7.48867 18.4792 9.15193 16.8159C10.8153 15.1527 13.512 15.1527 15.1753 16.8159L18.1869 19.8276L15.1753 22.8392C13.512 24.5025 10.8153 24.5025 9.15193 22.8392Z" fill="#21A475"/>
</g>
<defs>
<clipPath id="clip0_2204_2171">
<rect width="40" height="40" fill="white"/>
</clipPath>
</defs>
</svg>
