<svg width="148" height="40" viewBox="0 0 148 40" fill="none" xmlns="http://www.w3.org/2000/svg">
<path fill-rule="evenodd" clip-rule="evenodd" d="M15.6847 7.03728C14.5796 7.81805 13.5803 8.74117 12.7128 9.78032C16.2578 9.44778 20.7616 9.99078 25.9905 12.6324C31.5743 15.4533 36.0706 15.5487 39.1998 14.9388C38.9159 14.0702 38.5584 13.2354 38.135 12.4418C34.5529 12.8235 29.9606 12.3182 24.6088 9.61453C21.2103 7.89762 18.2145 7.19036 15.6847 7.03728ZM36.0425 9.43242C33.2137 6.23894 29.1028 4.22919 24.5272 4.22919C23.1835 4.22919 21.8798 4.40254 20.6369 4.72829C22.3202 5.19238 24.1084 5.87132 25.9905 6.82217C29.9089 8.80169 33.2918 9.43906 36.0425 9.43242ZM39.8688 17.9877C36.0885 18.7419 30.8681 18.587 24.6088 15.4248C18.757 12.4685 14.0994 12.5057 10.9582 13.211C10.7961 13.2474 10.6377 13.2856 10.4832 13.3254C10.072 14.2292 9.7437 15.1795 9.50815 16.1663C9.75973 16.0984 10.0197 16.0339 10.2879 15.9736C14.0988 15.118 19.4831 15.1551 25.9905 18.4427C31.8424 21.399 36.4999 21.3618 39.6412 20.6565C39.7488 20.6324 39.8549 20.6074 39.9592 20.5816C39.9706 20.3355 39.9763 20.0879 39.9763 19.8389C39.9763 19.2126 39.9398 18.5948 39.8688 17.9877ZM39.4547 23.8758C35.711 24.5371 30.6427 24.2833 24.6088 21.2351C18.757 18.2787 14.0994 18.316 10.9582 19.0213C10.2609 19.1778 9.6337 19.3684 9.08039 19.5697C9.07888 19.6593 9.07812 19.749 9.07812 19.8389C9.07812 28.46 15.9949 35.4487 24.5272 35.4487C31.6779 35.4487 37.6939 30.5401 39.4547 23.8758Z" fill="#019EC0"/>
<path d="M48.584 9.61H53.93C55.646 9.61 57.1493 9.95467 58.44 10.644C59.7307 11.3333 60.728 12.3013 61.432 13.548C62.136 14.78 62.488 16.1953 62.488 17.794C62.488 19.378 62.136 20.7933 61.432 22.04C60.728 23.2867 59.7233 24.262 58.418 24.966C57.1273 25.6553 55.6313 26 53.93 26H48.584V9.61ZM53.996 23.36C55.096 23.36 56.0567 23.1327 56.878 22.678C57.714 22.2233 58.352 21.578 58.792 20.742C59.2467 19.8913 59.474 18.9087 59.474 17.794C59.474 16.6793 59.2467 15.704 58.792 14.868C58.352 14.032 57.714 13.3867 56.878 12.932C56.0567 12.4773 55.096 12.25 53.996 12.25H51.576V23.36H53.996ZM68.8952 26.264C67.5018 26.264 66.4018 25.8167 65.5952 24.922C64.7885 24.0273 64.3852 22.8393 64.3852 21.358V14.032H67.2672V21.116C67.2672 21.864 67.4872 22.4727 67.9272 22.942C68.3818 23.3967 68.9685 23.624 69.6872 23.624C70.4058 23.624 70.9852 23.3893 71.4252 22.92C71.8798 22.4507 72.1072 21.8273 72.1072 21.05V14.032H74.9892V26H72.2612V24.57C71.9385 25.1273 71.4838 25.5527 70.8972 25.846C70.3252 26.1247 69.6578 26.264 68.8952 26.264ZM77.6682 14.032H80.3742V15.506C80.6822 14.9487 81.1295 14.5233 81.7162 14.23C82.3175 13.922 82.9995 13.768 83.7622 13.768C84.6275 13.768 85.4048 13.9587 86.0942 14.34C86.7835 14.7213 87.3188 15.2567 87.7002 15.946C88.0815 16.6353 88.2722 17.42 88.2722 18.3V26H85.3902V18.982C85.3902 18.2047 85.1628 17.5813 84.7082 17.112C84.2682 16.6427 83.6888 16.408 82.9702 16.408C82.2515 16.408 81.6648 16.6427 81.2102 17.112C80.7702 17.5813 80.5502 18.2047 80.5502 18.982V26H77.6682V14.032ZM90.7092 14.032H93.5912V26H90.7092V14.032ZM90.4892 10.732C90.4892 10.204 90.6359 9.79333 90.9292 9.5C91.2225 9.20667 91.6259 9.06 92.1392 9.06C92.6672 9.06 93.0779 9.20667 93.3712 9.5C93.6645 9.79333 93.8112 10.204 93.8112 10.732C93.8112 11.2453 93.6645 11.6487 93.3712 11.942C93.0925 12.2353 92.6819 12.382 92.1392 12.382C91.6259 12.382 91.2225 12.2353 90.9292 11.942C90.6359 11.6487 90.4892 11.2453 90.4892 10.732ZM99.8162 25.824L95.1522 14.032H98.2542L101.356 22.282L104.436 14.032H107.56L101.092 30.4H97.9902L99.8162 25.824ZM112.343 26.264C111.082 26.264 110.077 25.956 109.329 25.34C108.596 24.724 108.229 23.888 108.229 22.832C108.229 21.82 108.574 20.984 109.263 20.324C109.952 19.664 110.986 19.224 112.365 19.004L115.929 18.432V18.036C115.929 17.508 115.724 17.0753 115.313 16.738C114.917 16.4007 114.389 16.232 113.729 16.232C113.113 16.232 112.563 16.4007 112.079 16.738C111.61 17.0607 111.265 17.4933 111.045 18.036L108.691 16.892C109.043 15.9533 109.688 15.198 110.627 14.626C111.566 14.054 112.636 13.768 113.839 13.768C114.807 13.768 115.665 13.9513 116.413 14.318C117.176 14.67 117.762 15.176 118.173 15.836C118.598 16.4813 118.811 17.2147 118.811 18.036V26H116.083V24.724C115.144 25.7507 113.898 26.264 112.343 26.264ZM111.221 22.722C111.221 23.1327 111.375 23.4627 111.683 23.712C111.991 23.9467 112.387 24.064 112.871 24.064C113.766 24.064 114.499 23.7853 115.071 23.228C115.643 22.656 115.929 21.952 115.929 21.116V20.632L112.915 21.138C112.343 21.2553 111.918 21.446 111.639 21.71C111.36 21.9593 111.221 22.2967 111.221 22.722Z" fill="#213235"/>
</svg>
