<svg width="167" height="30" viewBox="0 0 167 30" fill="none" xmlns="http://www.w3.org/2000/svg">
<path d="M20.4191 14.371C20.0401 14.7523 19.7499 15.2125 19.569 15.7187C19.3882 16.225 19.3213 16.7649 19.373 17.3L19.355 17.282C19.4082 17.9119 19.3232 18.5457 19.1061 19.1394C18.889 19.733 18.5451 20.2721 18.0982 20.7191C17.6512 21.166 17.112 21.5101 16.5183 21.7271C15.9247 21.9442 15.2908 22.0292 14.661 21.976L14.6791 21.994C13.9257 21.9239 13.1689 22.0878 12.512 22.4635C11.8552 22.8392 11.3302 23.4083 11.0087 24.0933C10.6872 24.7783 10.5847 25.5457 10.7153 26.2911C10.846 27.0364 11.2033 27.7233 11.7386 28.2581C12.2739 28.7929 12.9611 29.1496 13.7065 29.2795C14.452 29.4095 15.2193 29.3063 15.904 28.9842C16.5887 28.662 17.1573 28.1366 17.5324 27.4794C17.9075 26.8222 18.0708 26.0654 18 25.312L18.019 25.33C17.9658 24.7002 18.0507 24.0663 18.2678 23.4726C18.4849 22.879 18.829 22.3399 19.2759 21.8929C19.7229 21.446 20.262 21.1019 20.8556 20.8849C21.4494 20.6678 22.0831 20.5828 22.713 20.636L22.694 20.618C23.3095 20.6733 23.929 20.5724 24.4951 20.3246C25.0611 20.0768 25.5554 19.6901 25.9322 19.2004C26.309 18.7107 26.5562 18.1337 26.6507 17.5231C26.7451 16.9124 26.684 16.2878 26.4727 15.707C26.2615 15.1263 25.9071 14.6083 25.4424 14.201C24.9777 13.7937 24.4178 13.5103 23.8144 13.3771C23.2109 13.2439 22.5837 13.2651 21.9907 13.4388C21.3976 13.6126 20.8582 13.9332 20.4221 14.371H20.4191Z" fill="#B532CA"/>
<path d="M13.0412 19.636L13.0222 19.618C13.5575 19.6719 14.0981 19.6062 14.605 19.4256C15.1118 19.245 15.5722 18.9541 15.9528 18.5738C16.3333 18.1935 16.6247 17.7333 16.8056 17.2266C16.9866 16.7199 17.0527 16.1794 16.9992 15.644L17.0182 15.662C16.965 15.0321 17.05 14.3983 17.267 13.8046C17.4841 13.211 17.8282 12.6719 18.2751 12.2249C18.7221 11.778 19.2612 11.4339 19.8548 11.2169C20.4485 10.9998 21.0823 10.9148 21.7122 10.968L21.6932 10.95C22.4467 11.0208 23.2036 10.8574 23.8608 10.4821C24.5181 10.1068 25.0435 9.53797 25.3655 8.8531C25.6875 8.16824 25.7904 7.40071 25.6602 6.6552C25.53 5.90969 25.173 5.22251 24.6378 4.68737C24.1027 4.15224 23.4155 3.7952 22.67 3.66498C21.9245 3.53475 21.157 3.63766 20.4721 3.95968C19.7872 4.28169 19.2184 4.80714 18.8431 5.46435C18.4678 6.12155 18.3044 6.87852 18.3752 7.632L18.3572 7.613C18.4105 8.24289 18.3257 8.87683 18.1087 9.47055C17.8917 10.0643 17.5476 10.6035 17.1007 11.0505C16.6537 11.4974 16.1145 11.8415 15.5208 12.0585C14.927 12.2755 14.2931 12.3603 13.6632 12.307L13.6812 12.326C13.1459 12.2721 12.6052 12.3378 12.0984 12.5184C11.5916 12.6989 11.1312 12.9899 10.7506 13.3702C10.37 13.7505 10.0787 14.2107 9.89768 14.7174C9.71678 15.2241 9.65068 15.7646 9.70418 16.3L9.68618 16.282C9.73918 16.9118 9.65408 17.5456 9.43698 18.1392C9.21978 18.7327 8.87578 19.2718 8.42888 19.7187C7.98194 20.1656 7.4429 20.5096 6.84934 20.7268C6.25578 20.9439 5.62199 21.029 4.99218 20.976L5.01018 20.994C4.2567 20.9232 3.49973 21.0866 2.84252 21.4619C2.18532 21.8372 1.65987 22.406 1.33786 23.0909C1.01584 23.7758 0.912918 24.5433 1.04315 25.2888C1.17338 26.0343 1.53042 26.7215 2.06555 27.2566C2.60069 27.7918 3.28787 28.1488 4.03338 28.279C4.77889 28.4092 5.54642 28.3063 6.23129 27.9843C6.91615 27.6623 7.48502 27.1369 7.86028 26.4797C8.23558 25.8224 8.39898 25.0655 8.32818 24.312L8.34718 24.33C8.29398 23.7001 8.37898 23.0663 8.59608 22.4726C8.81308 21.879 9.15718 21.3399 9.60408 20.8929C10.0511 20.446 10.5902 20.1019 11.1838 19.8849C11.7775 19.6678 12.4113 19.5828 13.0412 19.636Z" fill="#B532CA"/>
<path d="M6.34021 17.6289C6.71923 17.2477 7.00941 16.7875 7.19005 16.2812C7.37069 15.7749 7.43733 15.2349 7.38521 14.6999L7.4042 14.7179C7.351 14.0879 7.43596 13.4538 7.65317 12.86C7.87038 12.2662 8.21461 11.727 8.66181 11.28C9.10901 10.8331 9.64831 10.4891 10.2422 10.2721C10.8361 10.0552 11.4702 9.97046 12.1002 10.0239L12.0812 10.0059C12.8344 10.0765 13.5911 9.91302 14.248 9.53778C14.9049 9.16255 15.43 8.59382 15.7519 7.90917C16.0737 7.22451 16.1765 6.45726 16.0463 5.71203C15.9161 4.9668 15.5591 4.27988 15.0242 3.74494C14.4893 3.21 13.8023 2.85308 13.0571 2.72286C12.3119 2.59263 11.5446 2.69545 10.86 3.01727C10.1753 3.33909 9.60661 3.86426 9.23141 4.52116C8.85611 5.17806 8.69261 5.93472 8.76321 6.68794L8.74521 6.66994C8.79841 7.29979 8.71341 7.93366 8.49631 8.5273C8.27921 9.12094 7.93523 9.66005 7.48827 10.107C7.04132 10.554 6.5022 10.898 5.90856 11.115C5.31492 11.3321 4.68106 11.4171 4.05121 11.3639L4.06921 11.3819C3.45378 11.3267 2.83437 11.4278 2.26839 11.6757C1.70241 11.9236 1.20816 12.3104 0.831451 12.8002C0.454741 13.2899 0.207761 13.8669 0.113381 14.4775C0.0190114 15.0882 0.0803014 15.7128 0.291571 16.2934C0.502841 16.8741 0.857271 17.392 1.322 17.7992C1.78673 18.2065 2.34673 18.4898 2.95011 18.623C3.55348 18.7561 4.18071 18.7348 4.77368 18.5611C5.36664 18.3873 5.90614 18.0667 6.3422 17.6289H6.34021Z" fill="#B532CA"/>
<path d="M35.584 6.61H38.444L43.9 14.002L49.224 6.61H52.084V23H49.07V11.868L44.01 18.6H43.658L38.576 11.648V23H35.584V6.61ZM60.8307 23.264C59.6721 23.264 58.6087 22.9927 57.6407 22.45C56.6727 21.9073 55.9027 21.1593 55.3307 20.206C54.7734 19.2527 54.4947 18.1893 54.4947 17.016C54.4947 15.8427 54.7734 14.7793 55.3307 13.826C55.8881 12.8727 56.6507 12.1247 57.6187 11.582C58.5867 11.0393 59.6574 10.768 60.8307 10.768C61.9894 10.768 63.0454 11.0393 63.9987 11.582C64.9667 12.1247 65.7294 12.8727 66.2867 13.826C66.8587 14.7793 67.1447 15.8427 67.1447 17.016C67.1447 18.204 66.8587 19.2747 66.2867 20.228C65.7294 21.1813 64.9667 21.9293 63.9987 22.472C63.0307 23 61.9747 23.264 60.8307 23.264ZM57.4867 17.016C57.4867 18.0573 57.7947 18.9227 58.4107 19.612C59.0414 20.2867 59.8481 20.624 60.8307 20.624C61.4614 20.624 62.0261 20.47 62.5247 20.162C63.0234 19.854 63.4121 19.4287 63.6907 18.886C63.9841 18.3287 64.1307 17.7053 64.1307 17.016C64.1307 16.3413 63.9841 15.7327 63.6907 15.19C63.4121 14.6327 63.0234 14.2 62.5247 13.892C62.0261 13.5693 61.4614 13.408 60.8307 13.408C60.1854 13.408 59.6061 13.5693 59.0927 13.892C58.5941 14.2 58.1981 14.6253 57.9047 15.168C57.6261 15.7107 57.4867 16.3267 57.4867 17.016ZM69.3303 11.032H72.0363V12.506C72.3443 11.9487 72.7916 11.5233 73.3783 11.23C73.9796 10.922 74.6616 10.768 75.4243 10.768C76.2896 10.768 77.0669 10.9587 77.7563 11.34C78.4456 11.7213 78.9809 12.2567 79.3623 12.946C79.7436 13.6353 79.9343 14.42 79.9343 15.3V23H77.0523V15.982C77.0523 15.2047 76.8249 14.5813 76.3703 14.112C75.9303 13.6427 75.3509 13.408 74.6323 13.408C73.9136 13.408 73.3269 13.6427 72.8723 14.112C72.4323 14.5813 72.2123 15.2047 72.2123 15.982V23H69.3303V11.032ZM88.0473 23.264C86.8446 23.264 85.774 22.9853 84.8353 22.428C83.9113 21.8707 83.1853 21.1153 82.6573 20.162C82.144 19.2087 81.8873 18.1527 81.8873 16.994C81.8873 15.8207 82.144 14.7647 82.6573 13.826C83.1853 12.8727 83.8966 12.1247 84.7913 11.582C85.7006 11.0393 86.7126 10.768 87.8273 10.768C89.03 10.768 90.0713 11.032 90.9513 11.56C91.8313 12.0733 92.4986 12.7773 92.9533 13.672C93.4226 14.5667 93.6573 15.5493 93.6573 16.62C93.6573 17.1187 93.606 17.522 93.5033 17.83H84.8793C84.9673 18.71 85.3046 19.414 85.8913 19.942C86.478 20.47 87.204 20.734 88.0693 20.734C88.7146 20.734 89.2646 20.602 89.7193 20.338C90.1886 20.0593 90.5626 19.678 90.8413 19.194L93.1733 20.338C92.8066 21.218 92.1613 21.9293 91.2373 22.472C90.3133 23 89.25 23.264 88.0473 23.264ZM90.5773 15.63C90.504 14.8967 90.218 14.3027 89.7193 13.848C89.2206 13.3787 88.59 13.144 87.8273 13.144C87.094 13.144 86.4706 13.364 85.9573 13.804C85.444 14.2293 85.1066 14.838 84.9453 15.63H90.5773ZM99.406 22.824L94.742 11.032H97.844L100.946 19.282L104.026 11.032H107.15L100.682 27.4H97.58L99.406 22.824ZM116.741 23.264C115.201 23.264 113.8 22.8973 112.539 22.164C111.277 21.4307 110.287 20.4187 109.569 19.128C108.85 17.8373 108.491 16.3927 108.491 14.794C108.491 13.1953 108.843 11.7507 109.547 10.46C110.265 9.16933 111.241 8.16467 112.473 7.446C113.719 6.71267 115.12 6.346 116.675 6.346C117.804 6.346 118.838 6.544 119.777 6.94C120.715 7.32133 121.507 7.842 122.153 8.502C122.813 9.14733 123.289 9.866 123.583 10.658L120.921 11.934C120.598 11.0687 120.063 10.3793 119.315 9.866C118.581 9.338 117.701 9.074 116.675 9.074C115.663 9.074 114.761 9.316 113.969 9.8C113.177 10.2693 112.561 10.9367 112.121 11.802C111.695 12.6673 111.483 13.6647 111.483 14.794C111.483 15.9233 111.703 16.928 112.143 17.808C112.597 18.6733 113.221 19.348 114.013 19.832C114.819 20.3013 115.729 20.536 116.741 20.536C117.577 20.536 118.347 20.3673 119.051 20.03C119.769 19.6927 120.334 19.216 120.745 18.6C121.17 17.984 121.383 17.2727 121.383 16.466V16.4H116.675V13.87H124.375V15.52C124.375 17.148 124.015 18.5487 123.297 19.722C122.593 20.8807 121.654 21.7607 120.481 22.362C119.322 22.9633 118.075 23.264 116.741 23.264ZM126.5 11.032H129.206V12.704C129.5 12.0587 129.918 11.5967 130.46 11.318C131.003 11.0393 131.663 10.9 132.44 10.9H133.144V13.452H132.11C131.289 13.452 130.629 13.7087 130.13 14.222C129.632 14.7353 129.382 15.4393 129.382 16.334V23H126.5V11.032ZM140.581 23.264C139.422 23.264 138.359 22.9927 137.391 22.45C136.423 21.9073 135.653 21.1593 135.081 20.206C134.523 19.2527 134.245 18.1893 134.245 17.016C134.245 15.8427 134.523 14.7793 135.081 13.826C135.638 12.8727 136.401 12.1247 137.369 11.582C138.337 11.0393 139.407 10.768 140.581 10.768C141.739 10.768 142.795 11.0393 143.749 11.582C144.717 12.1247 145.479 12.8727 146.037 13.826C146.609 14.7793 146.895 15.8427 146.895 17.016C146.895 18.204 146.609 19.2747 146.037 20.228C145.479 21.1813 144.717 21.9293 143.749 22.472C142.781 23 141.725 23.264 140.581 23.264ZM137.237 17.016C137.237 18.0573 137.545 18.9227 138.161 19.612C138.791 20.2867 139.598 20.624 140.581 20.624C141.211 20.624 141.776 20.47 142.275 20.162C142.773 19.854 143.162 19.4287 143.441 18.886C143.734 18.3287 143.881 17.7053 143.881 17.016C143.881 16.3413 143.734 15.7327 143.441 15.19C143.162 14.6327 142.773 14.2 142.275 13.892C141.776 13.5693 141.211 13.408 140.581 13.408C139.935 13.408 139.356 13.5693 138.843 13.892C138.344 14.2 137.948 14.6253 137.655 15.168C137.376 15.7107 137.237 16.3267 137.237 17.016ZM147.765 11.032H150.801L153.309 18.578L155.971 11.032H158.523L161.163 18.556L163.671 11.032H166.707L162.593 23H160.019L157.247 14.926L154.431 23H151.879L147.765 11.032Z" fill="#232121"/>
</svg>
